<?xml version="1.0" encoding="UTF-8" standalone="no"?>
<!-- Created with Inkscape (http://www.inkscape.org/) -->

<svg
   width="129.52713mm"
   height="138.05981mm"
   viewBox="0 0 129.52713 138.05981"
   version="1.1"
   id="svg1"
   xml:space="preserve"
   xmlns:xlink="http://www.w3.org/1999/xlink"
   xmlns="http://www.w3.org/2000/svg"
   xmlns:svg="http://www.w3.org/2000/svg"><defs
     id="defs1"><linearGradient
       id="linearGradient12"><stop
         style="stop-color:#f18c00;stop-opacity:1;"
         offset="0"
         id="stop12" /><stop
         style="stop-color:#ffcf29;stop-opacity:1;"
         offset="1"
         id="stop13" /></linearGradient><linearGradient
       id="swatch9"><stop
         style="stop-color:#f53c3c;stop-opacity:1;"
         offset="0"
         id="stop9" /></linearGradient><linearGradient
       id="swatch8"><stop
         style="stop-color:#1170d7;stop-opacity:1;"
         offset="0"
         id="stop8" /></linearGradient><linearGradient
       id="swatch7"><stop
         style="stop-color:#f18c00;stop-opacity:1;"
         offset="0"
         id="stop7" /></linearGradient><linearGradient
       id="swatch6"><stop
         style="stop-color:#000000;stop-opacity:0.962025;"
         offset="0"
         id="stop6" /></linearGradient><linearGradient
       xlink:href="#swatch7"
       id="linearGradient7"
       x1="86.991982"
       y1="132.70184"
       x2="100.44883"
       y2="132.70184"
       gradientUnits="userSpaceOnUse" /><linearGradient
       xlink:href="#swatch8"
       id="linearGradient8"
       x1="109.59234"
       y1="137.1738"
       x2="123.04918"
       y2="137.1738"
       gradientUnits="userSpaceOnUse" /><linearGradient
       xlink:href="#swatch8"
       id="linearGradient9"
       x1="94.175644"
       y1="157.38557"
       x2="125.18189"
       y2="157.38557"
       gradientUnits="userSpaceOnUse" /><linearGradient
       xlink:href="#linearGradient12"
       id="linearGradient13"
       x1="84.734863"
       y1="154.52026"
       x2="108.81443"
       y2="154.52026"
       gradientUnits="userSpaceOnUse" /></defs><g
     id="layer1"
     transform="translate(-40.236436,-79.470098)"><g
       id="g16"
       transform="matrix(3.2023895,0,0,3.2023895,-231.11761,-323.94586)"
       style="stroke-width:0.312267"><path
         id="path1-8"
         style="fill:url(#linearGradient8);fill-rule:evenodd;stroke-width:0.0827507"
         d="m 123.04918,137.1738 a 6.7284217,6.7284217 0 0 1 -6.72842,6.72842 6.7284217,6.7284217 0 0 1 -6.72842,-6.72842 6.7284217,6.7284217 0 0 1 6.72842,-6.72842 6.7284217,6.7284217 0 0 1 6.72842,6.72842 z" /><path
         id="path1"
         style="fill:url(#linearGradient7);fill-rule:evenodd;stroke-width:0.0827507"
         d="m 100.44883,132.70184 a 6.7284217,6.7284217 0 0 1 -6.728424,6.72842 6.7284217,6.7284217 0 0 1 -6.728422,-6.72842 6.7284217,6.7284217 0 0 1 6.728422,-6.72842 6.7284217,6.7284217 0 0 1 6.728424,6.72842 z" /><path
         id="path6"
         style="fill:url(#linearGradient9);fill-opacity:1;fill-rule:evenodd;stroke:none;stroke-width:0.0827502;stroke-miterlimit:0;stroke-opacity:1"
         d="m 99.4823,168.06261 c 6.42369,1.90923 12.47673,1.17614 18.08107,-2.46807 2.07462,-1.49483 3.87771,-3.14907 5.2374,-5.10563 1.55277,-2.29674 2.31525,-4.53963 2.36265,-6.68383 0.13601,-1.81456 -0.48241,-3.58067 -1.74356,-5.3051 -3.48292,-3.6466 -7.26463,-3.67099 -11.30784,-0.524 l -3.29747,3.21272 c -2.94575,3.07474 -6.68813,4.46502 -11.093383,4.33824 -2.271096,0.1372 -3.5108,1.50896 -3.54552,4.32428 0.265872,3.63325 2.380557,6.33504 5.306653,8.21139 z" /><path
         id="path4"
         style="fill:#f53c3c;fill-opacity:1;fill-rule:evenodd;stroke:none;stroke-width:0.0827502;stroke-miterlimit:0;stroke-opacity:1"
         d="m 88.186865,159.10657 c 1.527802,2.29318 3.381833,4.28036 5.644617,5.93917 1.812905,1.28866 3.700841,2.2765 5.650818,3.01687 -2.926096,-1.87635 -5.040781,-4.57814 -5.306653,-8.21139 0.03472,-2.81532 1.274424,-4.18708 3.54552,-4.32428 4.405253,0.12678 8.147633,-1.2635 11.093383,-4.33824 -1.23802,-0.73688 -2.63869,-0.90477 -3.67058,-1.61282 -0.37855,-0.24115 -0.74486,-0.49094 -1.10123,-0.74776 z" /><path
         style="fill:url(#linearGradient13);fill-opacity:1;fill-rule:nonzero;stroke:none;stroke-width:0.0827502;stroke-miterlimit:0;stroke-opacity:1"
         d="m 108.81443,151.18878 c -1.23802,-0.73689 -2.63853,-0.90507 -3.67042,-1.61312 -3.00447,-1.91395 -5.25404,-4.36078 -7.63983,-6.71145 -3.07949,-2.6083 -6.36963,-2.41719 -9.760378,-0.009 -3.205432,3.14029 -3.868172,7.08093 -1.899959,11.96103 1.856919,4.17253 4.413557,7.60958 7.987447,10.22954 1.81291,1.28866 3.70103,2.27646 5.65101,3.01683 -2.9261,-1.87635 -5.04097,-4.57799 -5.30685,-8.21124 0.0347,-2.81533 1.27459,-4.18746 3.54569,-4.32466 4.40526,0.12678 8.14754,-1.26319 11.09329,-4.33793 z"
         id="path2" /></g></g></svg>
